name ./resultDataOpenSim/trcMotMarkerGrf/sub09/grf-14-06.mot
datacolumns 19
datarows 17
range 0.48800000 0.55200000
endheader

                time	     ground_force_vx	     ground_force_vy	     ground_force_vz	     ground_force_px	     ground_force_py	     ground_force_pz	   l_ground_force_vx	   l_ground_force_vy	   l_ground_force_vz	   l_ground_force_px	   l_ground_force_py	   l_ground_force_pz	     ground_torque_x	     ground_torque_y	     ground_torque_z	   l_ground_torque_x	   l_ground_torque_y	   l_ground_torque_z	
          0.48800000	         38.97296233	        447.83184373	        -19.48884796	         -0.64343931	          0.00000000	          0.09694193	          0.00000000	          0.00000000	          0.00000000	          0.00000000	          0.00000000	          0.00000000	          0.00000000	          4.33147770	          0.00000000	          0.00000000	          0.00000000	          0.00000000	
          0.49200000	         43.50136648	        457.95177154	        -21.12669352	         -0.64276691	          0.00000000	          0.09742023	          0.00000000	          0.00000000	          0.00000000	          0.00000000	          0.00000000	          0.00000000	          0.00000000	          4.61186650	          0.00000000	          0.00000000	          0.00000000	          0.00000000	
          0.49600000	         48.33196966	        468.73515580	        -22.29399634	         -0.64226569	          0.00000000	          0.09779765	          0.00000000	          0.00000000	          0.00000000	          0.00000000	          0.00000000	          0.00000000	          0.00000000	          4.97400004	          0.00000000	          0.00000000	          0.00000000	          0.00000000	
          0.50000000	         53.02883312	        480.07865664	        -23.12106587	         -0.64189370	          0.00000000	          0.09807373	          0.00000000	          0.00000000	          0.00000000	          0.00000000	          0.00000000	          0.00000000	          0.00000000	          5.40021787	          0.00000000	          0.00000000	          0.00000000	          0.00000000	
          0.50400000	         57.22311588	        491.58766804	        -23.81581512	         -0.64135649	          0.00000000	          0.09832805	          0.00000000	          0.00000000	          0.00000000	          0.00000000	          0.00000000	          0.00000000	          0.00000000	          5.85814353	          0.00000000	          0.00000000	          0.00000000	          0.00000000	
          0.50800000	         60.67060128	        502.83727853	        -24.59793488	         -0.64032969	          0.00000000	          0.09864971	          0.00000000	          0.00000000	          0.00000000	          0.00000000	          0.00000000	          0.00000000	          0.00000000	          6.30562723	          0.00000000	          0.00000000	          0.00000000	          0.00000000	
          0.51200000	         63.30096243	        513.69980576	        -25.64848233	         -0.63878658	          0.00000000	          0.09903616	          0.00000000	          0.00000000	          0.00000000	          0.00000000	          0.00000000	          0.00000000	          0.00000000	          6.69821405	          0.00000000	          0.00000000	          0.00000000	          0.00000000	
          0.51600000	         65.23202311	        524.37811075	        -27.09052515	         -0.63693937	          0.00000000	          0.09942231	          0.00000000	          0.00000000	          0.00000000	          0.00000000	          0.00000000	          0.00000000	          0.00000000	          6.99725181	          0.00000000	          0.00000000	          0.00000000	          0.00000000	
          0.52000000	         66.68009322	        535.14595526	        -28.97542353	         -0.63498623	          0.00000000	          0.09976627	          0.00000000	          0.00000000	          0.00000000	          0.00000000	          0.00000000	          0.00000000	          0.00000000	          7.17687774	          0.00000000	          0.00000000	          0.00000000	          0.00000000	
          0.52400000	         67.83612652	        546.09059281	        -31.25829564	         -0.63289312	          0.00000000	          0.10008375	          0.00000000	          0.00000000	          0.00000000	          0.00000000	          0.00000000	          0.00000000	          0.00000000	          7.22860205	          0.00000000	          0.00000000	          0.00000000	          0.00000000	
          0.52800000	         68.81553060	        557.09317623	        -33.79584648	         -0.63047898	          0.00000000	          0.10041483	          0.00000000	          0.00000000	          0.00000000	          0.00000000	          0.00000000	          0.00000000	          0.00000000	          7.16254908	          0.00000000	          0.00000000	          0.00000000	          0.00000000	
          0.53200000	         69.67476569	        568.04175452	        -36.38273454	         -0.62765998	          0.00000000	          0.10076836	          0.00000000	          0.00000000	          0.00000000	          0.00000000	          0.00000000	          0.00000000	          0.00000000	          7.00484163	          0.00000000	          0.00000000	          0.00000000	          0.00000000	
          0.53600000	         70.42881402	        579.01715342	        -38.79872367	         -0.62457993	          0.00000000	          0.10108606	          0.00000000	          0.00000000	          0.00000000	          0.00000000	          0.00000000	          0.00000000	          0.00000000	          6.79141492	          0.00000000	          0.00000000	          0.00000000	          0.00000000	
          0.54000000	         71.05339673	        590.21581193	        -40.84915330	         -0.62148065	          0.00000000	          0.10128564	          0.00000000	          0.00000000	          0.00000000	          0.00000000	          0.00000000	          0.00000000	          0.00000000	          6.55959513	          0.00000000	          0.00000000	          0.00000000	          0.00000000	
          0.54400000	         71.50206171	        601.72570379	        -42.39613596	         -0.61847370	          0.00000000	          0.10133494	          0.00000000	          0.00000000	          0.00000000	          0.00000000	          0.00000000	          0.00000000	          0.00000000	          6.33966846	          0.00000000	          0.00000000	          0.00000000	          0.00000000	
          0.54800000	         71.75760729	        613.45830700	        -43.37204161	         -0.61549353	          0.00000000	          0.10125679	          0.00000000	          0.00000000	          0.00000000	          0.00000000	          0.00000000	          0.00000000	          0.00000000	          6.14884517	          0.00000000	          0.00000000	          0.00000000	          0.00000000	
          0.55200000	         71.89893597	        625.29538360	        -43.77813227	         -0.61246801	          0.00000000	          0.10107797	          0.00000000	          0.00000000	          0.00000000	          0.00000000	          0.00000000	          0.00000000	          0.00000000	          5.98923975	          0.00000000	          0.00000000	          0.00000000	          0.00000000	
